<mxfile host="app.diagrams.net" modified="2020-10-29T02:25:20.667Z" agent="5.0 (Windows NT 10.0; Win64; x64) AppleWebKit/537.36 (KHTML, like Gecko) Chrome/86.0.4240.111 Safari/537.36" etag="1hvSqJrab3rkS2YVatJ9" version="13.8.5" type="github">
  <diagram id="jlnp2mi-9RoxGQrWistz" name="Page-1">
    <mxGraphModel dx="1038" dy="548" grid="1" gridSize="10" guides="1" tooltips="1" connect="1" arrows="1" fold="1" page="1" pageScale="1" pageWidth="827" pageHeight="1169" math="0" shadow="0">
      <root>
        <mxCell id="0" />
        <mxCell id="1" parent="0" />
        <mxCell id="ZHvjR-UZ-hKvnq4dms8H-22" value="" style="rounded=0;whiteSpace=wrap;html=1;fillColor=#d5e8d4;strokeColor=#82b366;" vertex="1" parent="1">
          <mxGeometry x="215" y="680" width="190" height="170" as="geometry" />
        </mxCell>
        <mxCell id="mmE7tZCUqvNhnk3p38ke-1" value="trackable" style="rounded=0;whiteSpace=wrap;html=1;" parent="1" vertex="1">
          <mxGeometry x="310" y="120" width="120" height="30" as="geometry" />
        </mxCell>
        <mxCell id="mmE7tZCUqvNhnk3p38ke-2" value="slot_rep" style="rounded=0;whiteSpace=wrap;html=1;" parent="1" vertex="1">
          <mxGeometry x="310" y="180" width="120" height="30" as="geometry" />
        </mxCell>
        <mxCell id="mmE7tZCUqvNhnk3p38ke-4" value="" style="endArrow=block;endSize=16;endFill=0;html=1;entryX=0.5;entryY=1;entryDx=0;entryDy=0;exitX=0.5;exitY=0;exitDx=0;exitDy=0;" parent="1" source="mmE7tZCUqvNhnk3p38ke-2" target="mmE7tZCUqvNhnk3p38ke-1" edge="1">
          <mxGeometry width="160" relative="1" as="geometry">
            <mxPoint x="260" y="280" as="sourcePoint" />
            <mxPoint x="420" y="280" as="targetPoint" />
          </mxGeometry>
        </mxCell>
        <mxCell id="mmE7tZCUqvNhnk3p38ke-5" value="typed_slot_rep&amp;lt;T&amp;gt;" style="rounded=0;whiteSpace=wrap;html=1;" parent="1" vertex="1">
          <mxGeometry x="310" y="240" width="120" height="30" as="geometry" />
        </mxCell>
        <mxCell id="mmE7tZCUqvNhnk3p38ke-6" value="" style="endArrow=block;endSize=16;endFill=0;html=1;entryX=0.5;entryY=1;entryDx=0;entryDy=0;exitX=0.5;exitY=0;exitDx=0;exitDy=0;" parent="1" source="mmE7tZCUqvNhnk3p38ke-5" target="mmE7tZCUqvNhnk3p38ke-2" edge="1">
          <mxGeometry width="160" relative="1" as="geometry">
            <mxPoint x="380" y="190" as="sourcePoint" />
            <mxPoint x="380" y="160" as="targetPoint" />
          </mxGeometry>
        </mxCell>
        <mxCell id="mmE7tZCUqvNhnk3p38ke-7" value="slot_base" style="rounded=0;whiteSpace=wrap;html=1;" parent="1" vertex="1">
          <mxGeometry x="110" y="180" width="120" height="30" as="geometry" />
        </mxCell>
        <mxCell id="mmE7tZCUqvNhnk3p38ke-9" value="" style="endArrow=diamondThin;endFill=1;endSize=24;html=1;entryX=1;entryY=0.5;entryDx=0;entryDy=0;exitX=0;exitY=0.5;exitDx=0;exitDy=0;" parent="1" source="mmE7tZCUqvNhnk3p38ke-2" target="mmE7tZCUqvNhnk3p38ke-7" edge="1">
          <mxGeometry width="160" relative="1" as="geometry">
            <mxPoint x="140" y="280" as="sourcePoint" />
            <mxPoint x="300" y="280" as="targetPoint" />
          </mxGeometry>
        </mxCell>
        <mxCell id="mmE7tZCUqvNhnk3p38ke-10" value="slot&amp;lt;T&amp;gt;" style="rounded=0;whiteSpace=wrap;html=1;fillColor=#d5e8d4;strokeColor=#82b366;" parent="1" vertex="1">
          <mxGeometry x="110" y="240" width="120" height="30" as="geometry" />
        </mxCell>
        <mxCell id="mmE7tZCUqvNhnk3p38ke-11" value="" style="endArrow=block;endSize=16;endFill=0;html=1;entryX=0.5;entryY=1;entryDx=0;entryDy=0;exitX=0.5;exitY=0;exitDx=0;exitDy=0;" parent="1" source="mmE7tZCUqvNhnk3p38ke-10" target="mmE7tZCUqvNhnk3p38ke-7" edge="1">
          <mxGeometry width="160" relative="1" as="geometry">
            <mxPoint x="380" y="250" as="sourcePoint" />
            <mxPoint x="380" y="220" as="targetPoint" />
          </mxGeometry>
        </mxCell>
        <mxCell id="mmE7tZCUqvNhnk3p38ke-12" value="trackable" style="rounded=0;whiteSpace=wrap;html=1;" parent="1" vertex="1">
          <mxGeometry x="540" y="30" width="120" height="30" as="geometry" />
        </mxCell>
        <mxCell id="mmE7tZCUqvNhnk3p38ke-13" value="" style="endArrow=open;endFill=1;endSize=12;html=1;exitX=0;exitY=0.5;exitDx=0;exitDy=0;" parent="1" source="mmE7tZCUqvNhnk3p38ke-12" edge="1">
          <mxGeometry width="160" relative="1" as="geometry">
            <mxPoint x="420" y="280" as="sourcePoint" />
            <mxPoint x="430" y="180" as="targetPoint" />
          </mxGeometry>
        </mxCell>
        <mxCell id="mmE7tZCUqvNhnk3p38ke-14" value="notify_slot_rep_invalidated" style="edgeLabel;html=1;align=center;verticalAlign=middle;resizable=0;points=[];" parent="mmE7tZCUqvNhnk3p38ke-13" vertex="1" connectable="0">
          <mxGeometry x="0.6907" relative="1" as="geometry">
            <mxPoint x="12.86" y="1.04" as="offset" />
          </mxGeometry>
        </mxCell>
        <mxCell id="mmE7tZCUqvNhnk3p38ke-15" value="on delete" style="edgeLabel;html=1;align=center;verticalAlign=middle;resizable=0;points=[];" parent="mmE7tZCUqvNhnk3p38ke-13" vertex="1" connectable="0">
          <mxGeometry x="-0.7093" relative="1" as="geometry">
            <mxPoint x="-12.11" y="-13.94" as="offset" />
          </mxGeometry>
        </mxCell>
        <mxCell id="mmE7tZCUqvNhnk3p38ke-16" value="signal" style="rounded=0;whiteSpace=wrap;html=1;" parent="1" vertex="1">
          <mxGeometry x="670" y="180" width="120" height="30" as="geometry" />
        </mxCell>
        <mxCell id="mmE7tZCUqvNhnk3p38ke-21" value="" style="endArrow=open;endFill=1;endSize=12;html=1;exitX=1;exitY=0.5;exitDx=0;exitDy=0;entryX=0;entryY=0.5;entryDx=0;entryDy=0;" parent="1" source="mmE7tZCUqvNhnk3p38ke-2" target="mmE7tZCUqvNhnk3p38ke-16" edge="1">
          <mxGeometry width="160" relative="1" as="geometry">
            <mxPoint x="560" y="145" as="sourcePoint" />
            <mxPoint x="610" y="195" as="targetPoint" />
          </mxGeometry>
        </mxCell>
        <mxCell id="mmE7tZCUqvNhnk3p38ke-25" value="parent" style="edgeLabel;html=1;align=center;verticalAlign=middle;resizable=0;points=[];" parent="mmE7tZCUqvNhnk3p38ke-21" vertex="1" connectable="0">
          <mxGeometry x="0.8185" y="1" relative="1" as="geometry">
            <mxPoint x="-78" y="1" as="offset" />
          </mxGeometry>
        </mxCell>
        <mxCell id="mmE7tZCUqvNhnk3p38ke-32" value="need to disconnect" style="edgeLabel;html=1;align=center;verticalAlign=middle;resizable=0;points=[];" parent="mmE7tZCUqvNhnk3p38ke-21" vertex="1" connectable="0">
          <mxGeometry x="-0.8633" relative="1" as="geometry">
            <mxPoint x="34" as="offset" />
          </mxGeometry>
        </mxCell>
        <mxCell id="mmE7tZCUqvNhnk3p38ke-33" value="notify_self_and_iter_of_invalidated_slot" style="edgeLabel;html=1;align=center;verticalAlign=middle;resizable=0;points=[];" parent="mmE7tZCUqvNhnk3p38ke-21" vertex="1" connectable="0">
          <mxGeometry x="0.6367" y="2" relative="1" as="geometry">
            <mxPoint x="74" y="-23" as="offset" />
          </mxGeometry>
        </mxCell>
        <mxCell id="mmE7tZCUqvNhnk3p38ke-26" value="" style="endArrow=open;endFill=1;endSize=12;html=1;entryX=1;entryY=1;entryDx=0;entryDy=0;exitX=0;exitY=0.5;exitDx=0;exitDy=0;" parent="1" source="mmE7tZCUqvNhnk3p38ke-28" target="mmE7tZCUqvNhnk3p38ke-2" edge="1">
          <mxGeometry width="160" relative="1" as="geometry">
            <mxPoint x="640" y="330" as="sourcePoint" />
            <mxPoint x="690" y="250" as="targetPoint" />
          </mxGeometry>
        </mxCell>
        <mxCell id="mmE7tZCUqvNhnk3p38ke-27" value="parent" style="edgeLabel;html=1;align=center;verticalAlign=middle;resizable=0;points=[];" parent="mmE7tZCUqvNhnk3p38ke-26" vertex="1" connectable="0">
          <mxGeometry x="0.8185" y="1" relative="1" as="geometry">
            <mxPoint x="50.68000000000001" y="74.21000000000001" as="offset" />
          </mxGeometry>
        </mxCell>
        <mxCell id="mmE7tZCUqvNhnk3p38ke-29" value="need to disconnect" style="edgeLabel;html=1;align=center;verticalAlign=middle;resizable=0;points=[];" parent="mmE7tZCUqvNhnk3p38ke-26" vertex="1" connectable="0">
          <mxGeometry x="-0.6382" y="2" relative="1" as="geometry">
            <mxPoint x="1.629999999999999" y="3.84" as="offset" />
          </mxGeometry>
        </mxCell>
        <mxCell id="mmE7tZCUqvNhnk3p38ke-31" value="notify_slot_rep_invalidated" style="edgeLabel;html=1;align=center;verticalAlign=middle;resizable=0;points=[];" parent="mmE7tZCUqvNhnk3p38ke-26" vertex="1" connectable="0">
          <mxGeometry x="0.7622" relative="1" as="geometry">
            <mxPoint x="47.07" as="offset" />
          </mxGeometry>
        </mxCell>
        <mxCell id="mmE7tZCUqvNhnk3p38ke-28" value="slot" style="rounded=0;whiteSpace=wrap;html=1;" parent="1" vertex="1">
          <mxGeometry x="540" y="360" width="120" height="30" as="geometry" />
        </mxCell>
        <mxCell id="ZHvjR-UZ-hKvnq4dms8H-1" value="typed_slot_rep &amp;lt;T_functor&amp;gt;" style="rounded=0;whiteSpace=wrap;html=1;" vertex="1" parent="1">
          <mxGeometry x="110" y="465" width="120" height="30" as="geometry" />
        </mxCell>
        <mxCell id="ZHvjR-UZ-hKvnq4dms8H-4" value="adaptor_functor &amp;lt;T_functor&amp;gt;" style="rounded=0;whiteSpace=wrap;html=1;" vertex="1" parent="1">
          <mxGeometry x="250" y="550" width="120" height="30" as="geometry" />
        </mxCell>
        <mxCell id="ZHvjR-UZ-hKvnq4dms8H-5" value="adaptor_base (empty class, in fact subclasses are used anywhere)" style="rounded=0;whiteSpace=wrap;html=1;dashed=1;" vertex="1" parent="1">
          <mxGeometry x="320" y="460" width="180" height="40" as="geometry" />
        </mxCell>
        <mxCell id="ZHvjR-UZ-hKvnq4dms8H-6" value="adapts&amp;lt;T_functor&amp;gt;" style="rounded=0;whiteSpace=wrap;html=1;" vertex="1" parent="1">
          <mxGeometry x="475" y="550" width="120" height="30" as="geometry" />
        </mxCell>
        <mxCell id="ZHvjR-UZ-hKvnq4dms8H-7" value="" style="endArrow=block;endSize=16;endFill=0;html=1;exitX=0.5;exitY=0;exitDx=0;exitDy=0;edgeStyle=orthogonalEdgeStyle;dashed=1;" edge="1" parent="1" source="ZHvjR-UZ-hKvnq4dms8H-4">
          <mxGeometry width="160" relative="1" as="geometry">
            <mxPoint x="380" y="200" as="sourcePoint" />
            <mxPoint x="410" y="500" as="targetPoint" />
          </mxGeometry>
        </mxCell>
        <mxCell id="ZHvjR-UZ-hKvnq4dms8H-8" value="" style="endArrow=block;endSize=16;endFill=0;html=1;exitX=0.5;exitY=0;exitDx=0;exitDy=0;edgeStyle=orthogonalEdgeStyle;dashed=1;entryX=0.5;entryY=1;entryDx=0;entryDy=0;" edge="1" parent="1" source="ZHvjR-UZ-hKvnq4dms8H-6" target="ZHvjR-UZ-hKvnq4dms8H-5">
          <mxGeometry width="160" relative="1" as="geometry">
            <mxPoint x="320" y="560" as="sourcePoint" />
            <mxPoint x="400" y="500" as="targetPoint" />
          </mxGeometry>
        </mxCell>
        <mxCell id="ZHvjR-UZ-hKvnq4dms8H-9" value="" style="endArrow=open;endFill=1;endSize=12;html=1;exitX=1;exitY=0.5;exitDx=0;exitDy=0;entryX=0;entryY=0.5;entryDx=0;entryDy=0;" edge="1" parent="1" source="ZHvjR-UZ-hKvnq4dms8H-1" target="ZHvjR-UZ-hKvnq4dms8H-5">
          <mxGeometry width="160" relative="1" as="geometry">
            <mxPoint x="310" y="410" as="sourcePoint" />
            <mxPoint x="470" y="410" as="targetPoint" />
          </mxGeometry>
        </mxCell>
        <mxCell id="ZHvjR-UZ-hKvnq4dms8H-10" value="unique_ptr" style="edgeLabel;html=1;align=center;verticalAlign=middle;resizable=0;points=[];" vertex="1" connectable="0" parent="ZHvjR-UZ-hKvnq4dms8H-9">
          <mxGeometry x="-0.7309" y="1" relative="1" as="geometry">
            <mxPoint as="offset" />
          </mxGeometry>
        </mxCell>
        <mxCell id="ZHvjR-UZ-hKvnq4dms8H-11" value="" style="endArrow=diamondThin;endFill=1;endSize=24;html=1;entryX=0.5;entryY=1;entryDx=0;entryDy=0;" edge="1" parent="1" target="ZHvjR-UZ-hKvnq4dms8H-4">
          <mxGeometry width="160" relative="1" as="geometry">
            <mxPoint x="310" y="630" as="sourcePoint" />
            <mxPoint x="250" y="620" as="targetPoint" />
          </mxGeometry>
        </mxCell>
        <mxCell id="ZHvjR-UZ-hKvnq4dms8H-14" value="" style="edgeStyle=orthogonalEdgeStyle;rounded=0;orthogonalLoop=1;jettySize=auto;html=1;" edge="1" parent="1" source="ZHvjR-UZ-hKvnq4dms8H-13" target="ZHvjR-UZ-hKvnq4dms8H-4">
          <mxGeometry relative="1" as="geometry" />
        </mxCell>
        <mxCell id="ZHvjR-UZ-hKvnq4dms8H-13" value="functor" style="rounded=0;whiteSpace=wrap;html=1;" vertex="1" parent="1">
          <mxGeometry x="250" y="620" width="120" height="30" as="geometry" />
        </mxCell>
        <mxCell id="ZHvjR-UZ-hKvnq4dms8H-15" value="" style="endArrow=diamondThin;endFill=1;endSize=24;html=1;entryX=1;entryY=0.5;entryDx=0;entryDy=0;edgeStyle=orthogonalEdgeStyle;exitX=1;exitY=0.5;exitDx=0;exitDy=0;" edge="1" parent="1" source="ZHvjR-UZ-hKvnq4dms8H-5" target="ZHvjR-UZ-hKvnq4dms8H-6">
          <mxGeometry width="160" relative="1" as="geometry">
            <mxPoint x="290" y="730" as="sourcePoint" />
            <mxPoint x="450" y="730" as="targetPoint" />
            <Array as="points">
              <mxPoint x="640" y="480" />
              <mxPoint x="640" y="565" />
            </Array>
          </mxGeometry>
        </mxCell>
        <mxCell id="ZHvjR-UZ-hKvnq4dms8H-16" value="pointer_functor" style="rounded=0;whiteSpace=wrap;html=1;" vertex="1" parent="1">
          <mxGeometry x="250" y="690" width="120" height="30" as="geometry" />
        </mxCell>
        <mxCell id="ZHvjR-UZ-hKvnq4dms8H-17" value="mem_functor" style="rounded=0;whiteSpace=wrap;html=1;" vertex="1" parent="1">
          <mxGeometry x="250" y="740" width="120" height="30" as="geometry" />
        </mxCell>
        <mxCell id="ZHvjR-UZ-hKvnq4dms8H-19" value="bound_mem_functor" style="rounded=0;whiteSpace=wrap;html=1;" vertex="1" parent="1">
          <mxGeometry x="250" y="800" width="120" height="30" as="geometry" />
        </mxCell>
        <mxCell id="ZHvjR-UZ-hKvnq4dms8H-20" value="" style="endArrow=block;endSize=16;endFill=0;html=1;entryX=0.5;entryY=1;entryDx=0;entryDy=0;exitX=0.5;exitY=0;exitDx=0;exitDy=0;" edge="1" parent="1" source="ZHvjR-UZ-hKvnq4dms8H-19" target="ZHvjR-UZ-hKvnq4dms8H-17">
          <mxGeometry width="160" relative="1" as="geometry">
            <mxPoint x="210" y="660" as="sourcePoint" />
            <mxPoint x="370" y="660" as="targetPoint" />
          </mxGeometry>
        </mxCell>
        <mxCell id="ZHvjR-UZ-hKvnq4dms8H-21" value="" style="endArrow=block;endSize=16;endFill=0;html=1;edgeStyle=orthogonalEdgeStyle;dashed=1;entryX=0.5;entryY=1;entryDx=0;entryDy=0;" edge="1" parent="1" target="ZHvjR-UZ-hKvnq4dms8H-13">
          <mxGeometry width="160" relative="1" as="geometry">
            <mxPoint x="310" y="680" as="sourcePoint" />
            <mxPoint x="420" y="510" as="targetPoint" />
          </mxGeometry>
        </mxCell>
        <mxCell id="ZHvjR-UZ-hKvnq4dms8H-23" value="" style="rounded=0;whiteSpace=wrap;html=1;fillColor=#d5e8d4;strokeColor=#82b366;" vertex="1" parent="1">
          <mxGeometry x="440" y="630" width="190" height="440" as="geometry" />
        </mxCell>
        <mxCell id="ZHvjR-UZ-hKvnq4dms8H-24" value="bind_functor &amp;lt;T_functor&amp;gt;" style="rounded=0;whiteSpace=wrap;html=1;" vertex="1" parent="1">
          <mxGeometry x="475" y="690" width="120" height="30" as="geometry" />
        </mxCell>
        <mxCell id="ZHvjR-UZ-hKvnq4dms8H-25" value="bind_return_functor &amp;lt;T_functor&amp;gt;" style="rounded=0;whiteSpace=wrap;html=1;" vertex="1" parent="1">
          <mxGeometry x="475" y="650" width="120" height="30" as="geometry" />
        </mxCell>
        <mxCell id="ZHvjR-UZ-hKvnq4dms8H-26" value="bound_argument &amp;lt;T&amp;gt;" style="rounded=0;whiteSpace=wrap;html=1;" vertex="1" parent="1">
          <mxGeometry x="660" y="690" width="120" height="30" as="geometry" />
        </mxCell>
        <mxCell id="ZHvjR-UZ-hKvnq4dms8H-27" value="limit_reference &amp;lt;T&amp;gt;" style="rounded=0;whiteSpace=wrap;html=1;" vertex="1" parent="1">
          <mxGeometry x="660" y="630" width="120" height="30" as="geometry" />
        </mxCell>
        <mxCell id="ZHvjR-UZ-hKvnq4dms8H-28" value="" style="endArrow=open;endFill=1;endSize=12;html=1;exitX=0.5;exitY=0;exitDx=0;exitDy=0;entryX=0.5;entryY=1;entryDx=0;entryDy=0;" edge="1" parent="1" source="ZHvjR-UZ-hKvnq4dms8H-26" target="ZHvjR-UZ-hKvnq4dms8H-27">
          <mxGeometry width="160" relative="1" as="geometry">
            <mxPoint x="650" y="760" as="sourcePoint" />
            <mxPoint x="810" y="760" as="targetPoint" />
          </mxGeometry>
        </mxCell>
        <mxCell id="ZHvjR-UZ-hKvnq4dms8H-29" value="" style="endArrow=open;endFill=1;endSize=12;html=1;exitX=1;exitY=0.5;exitDx=0;exitDy=0;entryX=0;entryY=0;entryDx=0;entryDy=0;" edge="1" parent="1" source="ZHvjR-UZ-hKvnq4dms8H-25" target="ZHvjR-UZ-hKvnq4dms8H-26">
          <mxGeometry width="160" relative="1" as="geometry">
            <mxPoint x="620" y="800" as="sourcePoint" />
            <mxPoint x="780" y="800" as="targetPoint" />
          </mxGeometry>
        </mxCell>
        <mxCell id="ZHvjR-UZ-hKvnq4dms8H-30" value="" style="endArrow=open;endFill=1;endSize=12;html=1;exitX=1;exitY=0.5;exitDx=0;exitDy=0;entryX=0;entryY=0.5;entryDx=0;entryDy=0;" edge="1" parent="1" source="ZHvjR-UZ-hKvnq4dms8H-24" target="ZHvjR-UZ-hKvnq4dms8H-26">
          <mxGeometry width="160" relative="1" as="geometry">
            <mxPoint x="605" y="675" as="sourcePoint" />
            <mxPoint x="670" y="715" as="targetPoint" />
          </mxGeometry>
        </mxCell>
        <mxCell id="ZHvjR-UZ-hKvnq4dms8H-31" value="tuple_utils" style="rounded=0;whiteSpace=wrap;html=1;" vertex="1" parent="1">
          <mxGeometry x="660" y="750" width="120" height="30" as="geometry" />
        </mxCell>
        <mxCell id="ZHvjR-UZ-hKvnq4dms8H-32" value="" style="endArrow=open;endFill=1;endSize=12;html=1;exitX=1;exitY=0.5;exitDx=0;exitDy=0;entryX=0;entryY=0.5;entryDx=0;entryDy=0;" edge="1" parent="1" source="ZHvjR-UZ-hKvnq4dms8H-24" target="ZHvjR-UZ-hKvnq4dms8H-31">
          <mxGeometry width="160" relative="1" as="geometry">
            <mxPoint x="605" y="715" as="sourcePoint" />
            <mxPoint x="670" y="715" as="targetPoint" />
          </mxGeometry>
        </mxCell>
        <mxCell id="ZHvjR-UZ-hKvnq4dms8H-33" value="composer(1,2)_functor &amp;lt;T_setter, T_getter&amp;gt;" style="rounded=0;whiteSpace=wrap;html=1;" vertex="1" parent="1">
          <mxGeometry x="475" y="740" width="120" height="30" as="geometry" />
        </mxCell>
        <mxCell id="ZHvjR-UZ-hKvnq4dms8H-34" value="exception_catch_functor &amp;lt;T_functor, T_catcher&amp;gt;" style="rounded=0;whiteSpace=wrap;html=1;" vertex="1" parent="1">
          <mxGeometry x="462.5" y="790" width="145" height="30" as="geometry" />
        </mxCell>
        <mxCell id="ZHvjR-UZ-hKvnq4dms8H-35" value="hide_functor &amp;lt;T_functor&amp;gt;" style="rounded=0;whiteSpace=wrap;html=1;" vertex="1" parent="1">
          <mxGeometry x="475" y="840" width="120" height="30" as="geometry" />
        </mxCell>
        <mxCell id="ZHvjR-UZ-hKvnq4dms8H-36" value="" style="endArrow=open;endFill=1;endSize=12;html=1;exitX=1;exitY=0.5;exitDx=0;exitDy=0;entryX=0;entryY=1;entryDx=0;entryDy=0;" edge="1" parent="1" source="ZHvjR-UZ-hKvnq4dms8H-35" target="ZHvjR-UZ-hKvnq4dms8H-31">
          <mxGeometry width="160" relative="1" as="geometry">
            <mxPoint x="640" y="890" as="sourcePoint" />
            <mxPoint x="800" y="890" as="targetPoint" />
          </mxGeometry>
        </mxCell>
        <mxCell id="ZHvjR-UZ-hKvnq4dms8H-37" value="retype_return_functor &amp;lt;T_return, T_functor&amp;gt;" style="rounded=0;whiteSpace=wrap;html=1;" vertex="1" parent="1">
          <mxGeometry x="460" y="950" width="150" height="30" as="geometry" />
        </mxCell>
        <mxCell id="ZHvjR-UZ-hKvnq4dms8H-38" value="" style="endArrow=open;endFill=1;endSize=12;html=1;exitX=1;exitY=0.5;exitDx=0;exitDy=0;entryX=0.5;entryY=1;entryDx=0;entryDy=0;" edge="1" parent="1" source="ZHvjR-UZ-hKvnq4dms8H-40" target="ZHvjR-UZ-hKvnq4dms8H-31">
          <mxGeometry width="160" relative="1" as="geometry">
            <mxPoint x="650" y="910" as="sourcePoint" />
            <mxPoint x="810" y="910" as="targetPoint" />
          </mxGeometry>
        </mxCell>
        <mxCell id="ZHvjR-UZ-hKvnq4dms8H-39" value="retype_functor &amp;lt;T_sigc_functor, T_types&amp;gt;" style="rounded=0;whiteSpace=wrap;html=1;" vertex="1" parent="1">
          <mxGeometry x="460" y="900" width="150" height="30" as="geometry" />
        </mxCell>
        <mxCell id="ZHvjR-UZ-hKvnq4dms8H-40" value="track_obj_functor &amp;lt;T_functor, T_objs&amp;gt;" style="rounded=0;whiteSpace=wrap;html=1;" vertex="1" parent="1">
          <mxGeometry x="460" y="1000" width="150" height="30" as="geometry" />
        </mxCell>
        <mxCell id="ZHvjR-UZ-hKvnq4dms8H-41" value="" style="endArrow=open;endFill=1;endSize=12;html=1;exitX=1;exitY=0.5;exitDx=0;exitDy=0;entryX=1;entryY=0.5;entryDx=0;entryDy=0;edgeStyle=orthogonalEdgeStyle;" edge="1" parent="1" source="ZHvjR-UZ-hKvnq4dms8H-40" target="ZHvjR-UZ-hKvnq4dms8H-27">
          <mxGeometry width="160" relative="1" as="geometry">
            <mxPoint x="620" y="1025" as="sourcePoint" />
            <mxPoint x="730" y="790" as="targetPoint" />
            <Array as="points">
              <mxPoint x="810" y="1015" />
              <mxPoint x="810" y="645" />
            </Array>
          </mxGeometry>
        </mxCell>
        <mxCell id="ZHvjR-UZ-hKvnq4dms8H-42" value="" style="endArrow=block;endSize=16;endFill=0;html=1;entryX=0.5;entryY=1;entryDx=0;entryDy=0;exitX=0.5;exitY=0;exitDx=0;exitDy=0;" edge="1" parent="1" source="ZHvjR-UZ-hKvnq4dms8H-23" target="ZHvjR-UZ-hKvnq4dms8H-6">
          <mxGeometry width="160" relative="1" as="geometry">
            <mxPoint x="90" y="950" as="sourcePoint" />
            <mxPoint x="250" y="950" as="targetPoint" />
          </mxGeometry>
        </mxCell>
      </root>
    </mxGraphModel>
  </diagram>
</mxfile>
